<svg xmlns="http://www.w3.org/2000/svg" viewBox="0 0 64 64" role="img" aria-label="Job Applications">
  <rect width="64" height="64" rx="14" fill="#13212d"/>
  <path fill="#f7f3ea" d="M22 18h20a5 5 0 0 1 5 5v25a5 5 0 0 1-5 5H22a5 5 0 0 1-5-5V23a5 5 0 0 1 5-5Z"/>
  <path fill="#164e67" d="M25 14h14a5 5 0 0 1 5 5v4H20v-4a5 5 0 0 1 5-5Zm0 5v1h14v-1H25Z"/>
  <path stroke="#164e67" stroke-linecap="round" stroke-width="4" d="M26 33h16M26 42h10"/>
  <path fill="none" stroke="#2f8f83" stroke-linecap="round" stroke-linejoin="round" stroke-width="5" d="m22 29 6 6 14-14"/>
</svg>
